<?xml version="1.0" encoding="UTF-8"?>
<svg xmlns="http://www.w3.org/2000/svg" version="1.1" viewBox="0 0 612 792">
  <defs>
    <style>
      .cls-1 {
        fill: #b59b7a;
      }

      .cls-2 {
        fill: #cac5d2;
      }

      .cls-3 {
        fill: #434343;
      }

      .cls-4 {
        fill: #8f86a0;
      }

      .cls-5 {
        fill: #262627;
      }

      .cls-6 {
        fill: #af936e;
      }

      .cls-7 {
        fill: #404152;
      }

      .cls-8 {
        fill: #2c2c3b;
      }

      .cls-9 {
        fill: #d9d7df;
      }

      .cls-10 {
        fill: #746989;
      }

      .cls-11 {
        fill: #fff;
      }

      .cls-12 {
        fill: #41382f;
      }

      .cls-13 {
        fill: #897054;
      }

      .cls-14 {
        fill: #d1ced8;
      }

      .cls-15 {
        fill: #3f4052;
      }

      .cls-16 {
        fill: #282828;
      }

      .cls-17 {
        fill: #ac9475;
      }

      .cls-18 {
        fill: #ccc8d4;
      }

      .cls-19 {
        fill: #1d1d1f;
      }

      .cls-20 {
        fill: #444;
      }

      .cls-21 {
        fill: #9991aa;
      }

      .cls-22 {
        fill: #e7e5ea;
      }

      .cls-23 {
        fill: #bbb6c6;
      }

      .cls-24 {
        fill: #e6e4ea;
      }

      .cls-25 {
        fill: #ad9373;
      }

      .cls-26 {
        fill: #aba5b9;
      }

      .cls-27 {
        fill: #a28c6d;
      }

      .cls-28 {
        fill: #978ea7;
      }

      .cls-29 {
        fill: #232323;
      }

      .cls-30 {
        fill: #b49a7a;
      }

      .cls-31 {
        fill: #e8e6eb;
      }

      .cls-32 {
        fill: #af926e;
      }

      .cls-33 {
        fill: #756450;
      }

      .cls-34 {
        fill: #beb9c8;
      }

      .cls-35 {
        fill: #f1f0f3;
      }

      .cls-36 {
        fill: #b0936e;
      }

      .cls-37 {
        fill: #ada7ba;
      }

      .cls-38 {
        fill: #2e2e2e;
      }

      .cls-39 {
        fill: #e3e1e7;
      }
    </style>
  </defs>
  <!-- Generator: Adobe Illustrator 28.7.1, SVG Export Plug-In . SVG Version: 1.2.0 Build 142)  -->
  <g>
    <g id="Layer_1">
      <g>
        <path class="cls-10" d="M602.8,392.1v9.6c-.5,1.3-.1,2.6-.2,3.9v5.9c.4,23.7-3.8,46.6-10.5,69.2-5.4,18.2-12.4,35.8-21.2,52.7-10.5,20.3-23.2,39.2-38.2,56.5-5.1,5.9-10.2,11.6-15.7,17.1-20.1,19.8-42.3,36.8-67,50.4-27,14.8-55.7,25.3-85.9,31.3-12.2,2.4-24.4,3.9-36.8,3.9-1.7,0-3.5.3-5.3.2h-30.5c-21,0-41.6-3.3-61.9-8.8-20-5.4-39.2-12.7-57.6-22.1-20.5-10.4-39.5-23.2-57.1-38-9.1-7.7-17.7-16-25.8-24.6-13.1-14-24.8-29.2-34.9-45.6-.5-.8-1-1.6-1.4-2.5-.4-1-.4-1.9.9-2.3,23.3-1.5,46.6-1,69.9-1,8.3,0,16.7,0,25,0,8.3,0,16.5.9,24.8.5,3.2-.1,6.4-1,9.7-.5,1.1.2,2.2.1,3.2.6,6.8,3.6,14.1,5.3,21.9,5.4,2.6.8,3.5,2.5,3,5.1-.5,2.2-.9,4.4-.5,6.6.6,3.3,2,4.6,5.3,4.8.9,0,1.8,0,2.6,0,69.9,0,139.8,0,209.6,0,7.8,0,8.9-1.1,9.4-8.9,0-.3,0-.6.1-.9.7-1.5,2.2-2,3.4-2.9,1-.7,2-.2,2.5.9.5,1.3,1,2.5,1.8,3.6,1.2,1.8,2.6,2,4.1.3,2.6-3,5.5-5.8,8.4-8.5,3.2-2.9,6.6-5.6,11-6.3.6,0,1.1-.2,1.6.2.8.6,1.8.4,2.6.2,2.9-.4,5.8-.4,8.7,0,2.2.4,4.5-.4,6.7-.4,12.1,0,24.2,0,36.4,0,4.7.4,9.4-.5,14.2.3,2.5.4,5.3-.3,7.9-1.2,1.4-.9,1.3-2.3,1.4-3.6.6-9.1-1.7-17.8-3.6-26.5-1.5-6.7-3.8-13.2-4.8-20-.1-.8-.2-1.6-.2-2.4.1-2.6.9-3.1,3.3-2.2.8.3,1.7.7,2.5,0,.7-.7.6-1.6.4-2.5-1.8-6.1-4-12-7.1-17.5-4-7.2-8.4-14.2-11.9-21.6-.6-1.2-1.1-2.5-1.4-3.8-.4-2.4.4-3.1,2.7-2.8,1.3.2,2.5.5,3.8.3.8,0,1.6-.3,1.9-1.2.3-.9-.2-1.5-.9-2.1-1.2-1-2.5-1.7-3.7-2.6-6.8-4.7-12.5-10.4-17-17.3,0-1.9,1.6-2.2,2.8-2.9,2.6-1.4,3.1-2.2,1.9-4.9-2.7-6.3-3.2-13-2.8-19.7,0-1.2.2-2.5,1.7-2.8,1.4-.3,1.9.9,2.4,1.9.5.8.9,1.7,1.5,2.5,1.5,1.7,3,1.5,3.8-.6.7-1.9.8-3.9,1.1-5.9,1.2-7.6-.2-14.9-1.7-22.3-.2-.8-.3-1.6-.4-2.4-.4-1.6,0-2.6,1.7-3.4,3-1.3,3-3,.3-4.8-1.6-1-3.4-1.8-3.8-4,0-1.6,1.2-2.5,2.1-3.7,5.5-7.5,9.7-15.6,11.1-24.9.7-4.3.2-8.6-1.1-12.8-.4-1.4-1.2-2.8-2.6-3.2-2-.6-2.3-2-2.2-3.7.2-4.3.6-8.6.5-12.9-.2-3.7-.5-7.5-.6-11.2,0-3.1-1.1-5.7-4.6-6.4-1-.7-1-1.8-1-2.8,0-1.8-.2-3.5-.6-5.2-.9-4.1-2.9-5.2-6.8-3.8-3.3,1.1-6.3,2.8-9.4,4.3-12.1,5.8-23,13.5-33.5,21.7-1.2.9-2.6,2.5-4.2,1.1-1.5-1.3-.4-3,.3-4.4.8-1.7,2.1-3,3.2-4.5,1.8-2.6,1.4-3.8-1.7-4.5-7.2-1.6-14.3-1-21.3,1-1.8.5-3.5,1-5.3,1.5-1.6.5-2.8.2-3.1-1.8-.4-2.2-1.4-2.7-3.7-2.1-4.8,1.3-9.5,3-14,5-3.4,1.5-6.9,2.9-10.2,4.9-1.4.9-2.9.7-4.4,0-2.4-1-4.5-2.5-6.5-4-2.3-1.6-3.4-1.3-4.2,1.4-.5,2-1.7,2-3.3,1.6-6.5-2-12.6-5.1-18.4-8.5-5.3-3.1-10.3-6.8-15.8-9.5-3.4-1.7-6.9-3.4-10.7-4.1-2.8-.5-3.7.2-4.2,3.1-.6.9-.7,1.9-.5,3,.4,3.2.1,6.4.2,9.6,0,1.8-.2,3.7.1,5.5.3,1.9,0,3.2-1.7,4.2-1.8,1.1-1.8,3-1.4,5,1.8,9.4,3.4,18.9,6.3,28,.2.7.4,1.4.5,2.1.2,1.2,0,2.2-1.2,2.7-1.8.8-2.3,2.3-2.1,4.1.4,4.9,2.8,9.1,5.1,13.3,1.6,2.9,3.4,5.6,5.3,8.3,1.2,1.9,1,2.8-1.1,3.7-2,.9-4.1,1.7-6.3,2.3-1,.3-2.2.6-2.2,1.9,0,1.4,1.2,1.8,2.3,2.1,1.4.4,2.8.6,4.2.9,2,.4,2.4,1.2,1.7,3-1.5,3.7-2.9,7.5-3.4,11.4-.3,2.1-.3,3.8,2,5.1,1.7.9,1.1,3,.9,4.6-.2,2.1-.3,4.1,0,6.2.3,1.9.9,3.2,3.1,3.1.6,0,1,.3,1.4.8.5,2.7.7,5.4,0,8.1-1,.8-2.3.7-3.4.7-12,0-24.1.3-36.1,0-6-.2-12,0-17.9-.6-1.1-.5-1.2-1.4-.7-2.4.4-.8.9-1.5,1.6-2.1,4.2-3.5,6.9-8.1,9.3-12.9,1.8-3.6,3.8-7.2,5.8-10.6,3.1-5.2,4.9-10.7,3.5-16.9-.2-.9-.4-1.9-.6-2.8-.5-2.3-.7-4.5,0-6.8,1.4-4.9,1.9-9.8,1.1-14.9-.5-3.1-1.9-5.7-2.9-8.6,3-5.6,4.1-11.9,5.6-18,3.9-15.3,7.6-30.7,12-45.9,0-.3.2-.6.3-.9,1.5-5.4,1-6.5-4.1-8.5-8-3.1-15.2-7.6-21.3-13.5-5.1-4.9-9.5-10.6-14-16.1-6.6-8.1-13.4-16.1-21.8-22.4-2.3-1.7-4.9-3.1-7.6-4-5.2-1.8-9.2-.1-11.2,5-3.4,9-7.1,17.8-11.1,26.5-.3.7-.4,1.6-1.3,1.9-1.7.2-3.3,0-5-.5-10.8-3.2-22-4-33.1-3.2-13.9,1-27.1,4.8-39.3,11.7-1.2.7-2.4,1.2-3.6,1.9-1.2.7-2.2.7-3.3-.2-1-4.4-1.3-9-1.8-13.5-.8-6.4-1.5-12.9-3.1-19.1-.3-1.1-.3-2.6-1.7-2.9-1.6-.3-2.2,1-2.9,2.1-4.7,7.2-9.6,14.3-15,21.1-8.1,10.1-17.4,18.9-27.6,26.8-4.9,3.8-9.7,7.8-15.4,10.5-3,1.4-6.1,2.8-9.4,3.6-2.8.7-3.3,2-1.9,4.6,3.3,5.8,7.1,11.2,11.4,16.3,6.7,8,11.7,16.9,14.9,26.9-1.4,2.6-1.6,5.6-2,8.4-1.4,9.8.3,19.3,2.2,28.9,1.8,9.1,6,17.3,9.6,25.7.4.9.9,1.8,1.2,2.9,0,.3,0,.5-.2.8-.1.2-.2.5-.4.7-1.7,3.9-2.9,7.9-3.8,12-.9,4.4-.3,8.7.8,13-1.9,4.3-3.5,8.8-3.6,13.6-.2,8.8-4.2,16-8.8,23.1-8.2,12.7-14.4,26.3-17,41.3-.4,2,.1,4.4-1.7,6-.2.1-.5.2-.7.3-.3,0-.5,0-.8,0-10.5-5.4-20.6-4.6-30,2.3-5.4,3.9-9.1,9.4-10.9,16-.7,2.5-1.4,4.9-1.7,7.5-.2,1.2-.5,2.2-1.9,2.4-1.4-.2-1.6-1.5-2-2.4-4.4-9.4-7.9-19-11.1-28.9-4.7-14.6-8.2-29.6-10.6-44.7-1.3-8.3-2-16.7-2.3-25.1,0-2.6-.2-5.1-.1-7.7-.2-9-.3-17.9,0-26.9-.2-24.2,4.3-47.6,11-70.8,5.6-19.3,13.3-37.7,22.6-55.4,9.5-17.9,20.7-34.6,33.6-50.1,7.1-8.5,14.5-16.8,22.6-24.5,18.5-17.7,38.9-32.9,61.2-45.5,23.4-13.2,48.2-22.9,74.2-29.4,13.5-3.3,27.2-5.7,41.1-7,12.9-1.2,25.8-.8,38.8-.9,25.2-.2,49.6,4.1,73.8,10.9,20,5.6,39.1,13.5,57.4,23.3,19.9,10.7,38.5,23.4,55.5,38.4,23.6,20.7,43.7,44.4,59.8,71.4,11.3,18.8,20.4,38.6,27.2,59.4,6,18.2,10.5,36.7,12.4,55.8.7,7.3,1,14.6.9,21.9v6.9c.1,1.5-.3,3,.2,4.4Z"/>
        <path class="cls-11" d="M602.4,380.6c-5.4-111.5-74.8-211.2-177.8-255.9-24-10.4-49-17.5-74.9-21.3-19.7-2.9-39.6-3.8-59.5-2.6-62,3.6-117.6,24.4-166.3,62.9-55.2,43.7-90.6,100.1-106.3,168.8-3.8,16.5-5.8,33.2-6.7,50.1-.4.9,0,1.9-.3,2.9-.2.2-.4.2-.6,0V99h592.8v281.6c-.1.3-.3.3-.4,0Z"/>
        <path class="cls-11" d="M53.2,549.5c.2.9.8,1.6,1.2,2.3,41.2,67,107.5,115,184,133.2,15.6,3.7,31.5,6.1,47.5,7.2,1.7.1,3.3.3,5,.4.3.1.3.3,0,.4H10v-286c.2-.2.4-.2.6,0,.3,1.1-.2,2.2.3,3.3,1.8,36.5,9.8,71.5,24.5,105,.4,1,.7,2.1,1.5,3,.1,0,.2,0,.4,0,.4,0,.7.2,1,.5,4.5,9.7,9.5,19.2,14.9,28.4.3.5.5,1,.5,1.6,0,.2-.2.4-.4.6Z"/>
        <path class="cls-11" d="M322.2,692.6c9.2-.7,18.5-1.5,27.7-2.8,22.9-3.3,45.2-9.3,66.7-17.9,83.9-33.6,148.1-103.8,174-190.4,5-16.6,8.4-33.6,10.4-50.9.7-6.2,1.3-12.4,1.4-18.6.1-.4.2-.4.4,0v281.2h-280.6c-.3-.2-.3-.3,0-.4Z"/>
        <path class="cls-14" d="M10.9,410.4c-.5-1.1-.4-2.2-.5-3.3-.5-1.6.2-3.3-.4-4.9v-12.5c.6-1.4-.1-2.9.4-4.3.1-1,0-2,.5-2.9.2,2.1,0,4.1,0,6.2-.3,5.8-.2,11.6,0,17.4,0,1.4.2,2.9,0,4.3Z"/>
        <path class="cls-21" d="M302.1,692.6c3.2,0,6.4,0,9.7,0,.1,0,.2.2.3.2-.1,0-.2.1-.4.2h-9.6c-.4-.1-.4-.2,0-.4Z"/>
        <path class="cls-24" d="M10,402.2c.6,1.6.4,3.2.4,4.9-.1,0-.3,0-.4,0v-4.8Z"/>
        <path class="cls-4" d="M602.8,392.1c-.7-1.4-.5-2.9-.4-4.4.2-.3.3-.3.4,0v4.3Z"/>
        <path class="cls-35" d="M10.4,385.4c0,1.5,0,2.9-.4,4.3v-4.3c.1,0,.3,0,.4,0Z"/>
        <path class="cls-39" d="M322.2,692.6c0,.1,0,.3,0,.4h-3.8c-.3-.2-.3-.3,0-.4,1.3,0,2.5-.2,3.8,0Z"/>
        <path class="cls-9" d="M602.8,411.8h-.2s-.2,0-.2,0c-.2-1.3,0-2.6,0-3.8,0-.4.2-.4.4,0v3.8Z"/>
        <path class="cls-22" d="M602.4,380.6c.1,0,.3,0,.4,0v3.8c-.2.3-.3.3-.4,0,0-1.3,0-2.5,0-3.8Z"/>
        <path class="cls-31" d="M291.1,693c0-.1,0-.3,0-.4,1.3-.2,2.5,0,3.8,0,.4.1.4.2,0,.4h-3.8Z"/>
        <path class="cls-26" d="M302.1,692.6c0,.1,0,.3,0,.4h-3.8c-.1,0-.3-.1-.4-.2.1,0,.2-.2.3-.2,1.3,0,2.6,0,3.8,0Z"/>
        <path class="cls-28" d="M602.4,405.6c0-1.3-.2-2.6.4-3.9v3.8c0,.1-.1.3-.2.4,0-.1-.2-.2-.3-.3Z"/>
        <path class="cls-37" d="M311.7,693c0-.1,0-.3,0-.4,1.3,0,2.6,0,3.8,0,.1,0,.2.2.3.2-.1,0-.3.1-.4.2h-3.8Z"/>
        <path class="cls-2" d="M298.2,692.6c0,.1,0,.3,0,.4h-3.4c0-.1,0-.3,0-.4,1.1,0,2.2,0,3.3,0Z"/>
        <path class="cls-34" d="M602.4,384.4c.1,0,.3,0,.4,0v3.4c-.1,0-.3,0-.4,0,0-1.1,0-2.2,0-3.3Z"/>
        <path class="cls-18" d="M315.5,693c0-.1,0-.3,0-.4,1,0,1.9,0,2.9,0,0,.1,0,.3,0,.4h-2.9Z"/>
        <path class="cls-23" d="M602.4,405.6c.1,0,.3,0,.4,0v2.4h-.2s-.2,0-.2,0c0-.8,0-1.6,0-2.4Z"/>
        <path class="cls-15" d="M300.2,401.3c19.2.4,38.3.5,57.5.4.7-1.1,1.9-1,3-1.1,2.4,0,4.7,0,7.1-.3,2.1.6,4.3.2,6.5.2,17,0,34,0,51,0,4.5,0,9.1.3,13.6.6,4.4.2,7.7,2.8,10,6.6,2.7,4.5,2,9.4,1.5,14.2-.5,4.5-.8,9.1-1,13.6-.4,3.8-.9,7.6-1.2,11.4-.6,5.4-.5,11-1.8,16.3,0,10.6-1.6,21-2.1,31.5,0,2.1-1.5,4.1-.2,6.2-1.3,7.2-1.5,14.5-2.1,21.8-.2,1.8-.9,3.5-.5,5.4-.2,4.7-.8,9.5-1.2,14.2-.2,2.7-.2,5.4-.7,8.1-.2.8-.6,1.5-.5,2.3.2,2.2-.3,3.1.7,4.9.4.7-.7,1.9-1,2.6.1,1.7.2,3.4,0,5-.4,4.1-2.6,6.2-6.7,6.4-1.1,0-2.2,0-3.4,0-69.7,0-139.4,0-209.1,0-1.6,0-3.2,0-4.8,0-3,0-4.6-1.3-5.2-4.2-.6-2.9-.6-5.7.2-8.5.6-2,.2-2.8-1.8-4.2-1.7-3-1.3-6.4-1.6-9.6-1-9.1-1.4-18.3-2.7-27.4.7-2.4-.4-4.7-.4-7,0-1.3-.4-2.7-.3-4-.2-3.9-.7-7.8-1.1-11.7-.9-9.8-1.8-19.7-2.7-29.5-.9-9.9-1.7-19.8-2.7-29.8-.5-5.2-1.1-10.5-1.3-15.7-.6-4.8-.6-9.5,2-13.8,4.5-5,10.1-6.5,16.8-6.1,16.1.8,32.2.3,48.3.4,1.1,0,2.2-.2,3.3-.4,1.8-.3,3.6-.6,5.4-.1,1.1.5,2.1,0,3.2,0,7.6,0,15.1,0,22.7,0,1.2,0,2.4-.1,3.2,1.2Z"/>
        <path class="cls-38" d="M300.2,401.3c-9.8,0-19.5,0-29.3,0-.2-.2-.3-.4-.5-.6-.2-1.7,1.2-2.6,1.9-3.9.9-1.2,2.4-1.2,3.7-1.4,9.6-2,18.3-5.7,23.9-14.4.9-1.4,1.9-1.5,3.3-1.3,2.2.4,4.3.3,6.4-.2.5-.1,1.1-.2,1.3-.9-.4-.7-1.1-.6-1.7-.6-9.5.6-17.7-2.9-25.4-7.9-7.3-4.8-15.1-8.6-22.6-13.1-2.7-1.6-5.6-2.3-8.7-2.3-2.3,0-3.3-.8-3.7-3.1-.2-1.1-.2-2.2-.3-3.3-.9-4.5-3.4-7.2-8-8.4-7.7-2-14.5.1-20.9,4.2-4,2.5-6.3,6.6-4.1,11,.4.7.3,1.4-.3,2-2.4,1.2-5,1.4-7.6,2.1-10.4,3-18.6,8.9-25,17.6-2.4,3.2-5.1,6.2-8,8.9-2.4,2.3-4.2,5.1-6.8,7-6,4.4-12.8,5.5-20,3.6-3.7-1-7.1-2.4-10.2-4.5-.7-.5-1.8-1.5-2.5-.4-.6.9.5,1.8,1.3,2.3,6.4,4,13.1,7,20.9,6.1,1.1-.1,2.2,0,3.2.6,8.2,4.3,17,6.4,26.3,6.5,3.2,0,6.4.3,9.6-.3.6-.1,1.3-.2,1.6.6-1.9,3.2-2.2,6.7-2,10.3,0,.9,0,1.7,0,2.6-.5,1.4-1.8,1.2-2.8,1.1-4.9-.5-9.9-.3-14.7-1.7-4.3-1.3-8.8-2.3-13.2-2-3.8.2-7.3,0-10.8-1-8.1-2.2-15-6.3-19.4-13.7-.9-1.5-2.2-2.7-3.5-3.8-5.3-4.3-9.8-9.3-14-14.7-.8-1-1.2-2.2-1.2-3.5-2.7-5.5-5.2-11.1-7.6-16.8-3.3-8.2-4.8-16.8-5.9-25.6-.8-6.2-.4-12.4.4-18.6.3-2,1.5-3.7,1.6-5.7.7-.4,1.2,0,1.6.6,1.6,2.9,4.2,3.5,7.3,3.5,2.5,0,4.9-.5,7.3-1.2,4.4-2.5,8.7-5.2,11.9-9.3.8-1,1.8-1.5,3.1-1.6,4.5,3.3,8.7,7,13.2,10.2,3.1,2.2,6.4,4.2,10.1,5.5,3.5,1.2,5.5,0,5.2-3.7-.7-9.1-1.2-18.1-1.7-27.2-.5-10.4-2.3-20.8-2.2-31.3,0-6.8-.8-13.5-1.9-20.2-.2-.9-.3-1.8.9-2.1.3.5.7.8,1.4.4,1.1-.6,2.2-1.2,3.4-1.9,11.4-6.4,23.6-10.4,36.7-11.9,9.3-1.1,18.5-.6,27.7.6,3.3.5,6.6,1.2,9.8,2.2,1.4.4,2.9,1.1,4.4.8,1.1.6.6,1.3.2,2-1.3,2.7-2.3,5.6-3.9,8.2-1.3,2.2-1.3,4.3-.3,6.6,1.6,3.4,4.2,5.9,7.1,8,3.5,2.4,6.5,5.4,9.9,7.7,5.3,3.6,11.3,5.3,17.3,7,2.9,3.8,4.5,8.4,7.1,12.4,5.5,8.6,9.7,17.9,15,26.7,3.7,6.1,7.8,11.8,12.1,17.5,3,3.9,5.7,4.1,9.4.9.5-.4,1-.8,1.7-.3,0,.7,0,1.3.5,1.8,1.7,2,2.1,4.4,2.4,6.9.6,5.1.5,10.2-1.1,15.2-.8,2.3-.5,4.5,0,6.8.6,2.4,1,4.8,1,7.3,0,4.6-1.6,8.6-3.9,12.4-2.1,3.3-4.2,6.6-5.7,10.2-1.7,4.1-4.3,7.6-6.8,11.2-.6.9-1.6,1.6-2.4,2.3-1.2.9-2.2,1.9-2.8,3.2Z"/>
        <path class="cls-1" d="M521.6,352c1.1,1.1,2.3,2,3.7,2.7.6.3,1.3.7,1.8,1.1,2.3,1.6,2.2,3.7-.2,5.1-.1,0-.3.2-.4.2q-2.8,1.5-2.1,4.6c1.2,5.9,2.4,11.8,2.1,17.8-.2,3.8-.4,7.5-1.4,11.1-.2.5-.3,1.1-.5,1.6-1,2.2-3.1,2.6-4.8.7-.9-1-1.5-2.1-2.1-3.2-.4-.7-.6-1.5-1.4-2.1-.7.3-.7,1-.7,1.6-.6,6.8.2,13.4,2.9,19.7.3.6.5,1.2.7,1.8.6,2.3-.2,3.7-2.5,4.2-1.3.3-2.4.9-3.4,1.7,0,.8-.3,1.4-1,1.7-2.5,1.1-3.2,3.2-3.7,5.7-.5,2.6-1.5,3.6-3.7,3.8-2.3-1.2-4.2-1-5.6,1.4-.3.5-.9.9-1.5,1.1-.5,0-1,0-1.5-.3-.2,0-.5-.1-.7-.2-1.3-.6-1.6-1.7-1.7-2.9-.6-5.3-1.5-10.4-3.7-15.3-.4-1-.6-2.1.4-2.8,1-.8,2.1-.5,3.1.2.3.2.5.3.8.5.9.6,1.9,1.5,3,.5,1-.9.6-2.1,0-3.1-3.1-6.6-7.6-12.1-14-15.7-7.8-4.4-16.3-7-25.4-6.6-1,0-2.1,0-3.1-.2-1-.2-1.8-.7-1.8-1.9,0-1,.8-1.5,1.7-1.7,1.3-.3,2.7-.5,4-.6,4.7-.4,9.4,0,14.1,0,3.3,0,3.4-.1,3.9-3.5.3-1.9,1.9-1.8,3.2-1.6,2.5.4,5.1.3,7.7.3,4,0,4.5-.6,4.2-4.4.4-1.2,1.3-1.7,2.5-1.8,1.2,0,2.4-.1,3.5-.5,2.2-.8,2.7-2.6,1.2-4.3-.8-1-1.9-1.7-3-2.4-1.8-1.2-3.5-2.4-5-4-2.4-2.6-2.1-4.8,1.1-6.5,1.2-.6,2.5-1.1,3.7-1.6,1.3-.5,2.5-1.2,3.4-2.1,1-1,1.5-2.3.9-3.7-.6-1.3-1.7-1.8-3.1-1.9-.3,0-.6,0-1,0-5.1,1.3-9.9.1-14.9-1.1-7.5-1.9-14.9-4.1-22.7-4.8-6.6-.7-12.8.6-18.6,3.7-2.1.3-3.7,1.2-5.3,2.6-2.1,1.9-4.3,3.6-6.4,5.4-1,.9-2.2,1.8-3.7,1.1-1.5-.8-1.1-2.3-1-3.7.3-3.8-.2-7.5-1.4-11.1-.4-1.2-1-2.3-2.4-2.4-1.6,0-2.1,1.2-2.6,2.5-.8,2-1,4.2-1.5,6.3-.4,1.6-.8,3.3-1.6,4.7-1.6,2.8-3.8,3-6,.7-.7-.7-1.2-1.5-1.5-2.4-1.2-3.2-2.2-6.5-4.4-9.2-2.2-5.8-3.6-11.7-5-17.7-.7-3-.8-5.7,2-7.7,1-.8,1.2-2.1,1.1-3.3,0-6.1,0-12.1,1-18.2.2-1.2,0-2.4-1.2-3.1-1.2-.7-2.3-.4-3.4.2-1,.6-1.7,1.4-2.3,2.4-.5.8-.9,1.5-1.8,1.8-2.7,1-3.4,3.2-3.5,5.7,0,.8,0,1.6.2,2.4.5,2.7.4,5.1-2.2,6.9-1.4,1-1.5,2.9-1.6,4.6-.1,4.4,1.3,8.5,2.7,12.6,1.7,5,3.9,9.8,5.2,14.9.2.6.4,1.2.5,1.8.8,3.2.2,3.9-3.1,3.6-9.5-.7-18.6,1.2-27.6,3.9-3.6,1-4.2.8-4.9-2.8-.4-2.3-.8-4.6-.7-6.9,0-1.5,0-3-.5-4.5.6-1.8.3-3.7.3-5.6,0-2.6.6-5.2,1.5-7.7.4-1.2.6-2.4,0-3.7-2.2-3.9-1.3-7.2,2.6-9.4.8-.5,1.7-.9,2.6-1.3,1.3-.5,1.7-1.2.9-2.6-1.9-3.5-.6-5.7,3.4-5.7,2.5,0,5.1-.5,7.5.6,0,0,.1,0,.1,0-6-4.3-11.4-9.2-16.2-14.7-5.7-5.9-10.8-12.3-15.4-19.1-.7-1-.8-2.2-1.1-3.4.4-3.8,1.4-4.6,5.4-3.9,4.2.7,7.9,2.5,11.6,4.4,6,3.1,11.4,7.1,17.2,10.4,4.9,2.8,9.8,5.3,15.2,7.1.6.2,1.2.4,1.8.6.8.2,1.2,0,1.3-.9,0-.5.1-1,.3-1.4.7-2.4,2.6-3.1,4.6-1.6.8.6,1.6,1.3,2.4,1.9.8.6,1.6,1.1,2.4,1.6,2.6,1.8,5,2,8.1.3,7.1-3.9,14.6-6.8,22.4-9,.8-.2,1.5-.4,2.4-.4,1.8.2,2.8,1.1,2.9,2.9.2,1.8.2,1.8,1.9,1.3,2.5-.8,5.1-1.5,7.6-2.1,6.6-1.6,13.1-1.6,19.7-.2.3,0,.6.1.9.2,2.8.8,3.4,2.8,1.7,5.1-.9,1.1-1.8,2.2-2.7,3.4-.9,1.1-1.6,2.4-2,3.8-.1.5-.3,1,.2,1.3.5.3.9,0,1.3-.3.4-.3.8-.6,1.1-.9,8-6.2,16-12.2,24.8-17.2,5.7-3.2,11.6-6.2,17.5-8.8,1.2-.6,2.5-.9,3.9-1.1,1.9-.3,3.3.4,4.2,2,1.2,2,1.6,4.3,1.8,6.7,0,1.4,0,2.9,0,4.3.4,1-.2,1.7-.8,2.3-4.1,5.2-8.8,9.9-13.7,14.5-3.8,3.7-8.3,6.5-12.5,9.6-1.2.9-2.4,1.6-3.5,2.5-.5.4-1.2.7-1,1.5.1.8.9.8,1.5,1,2.8.6,5.6,1.3,8.3,2.3,3.4,1.4,4.6,3.2,4.6,6.7,0,.9,0,1.9.6,2.5,3.2,3.1,5.8,6.7,8.3,10.4,2,3.8,2,7.8,1.4,11.8-.5,3.3-1.3,6.6-2.2,9.8-.3.8-.5,1.7-.6,2.6-.2,1.2-.3,2.5.8,3.3,1.2.9,2.2,0,3.3-.4,1.1-.5,2.1-1.8,3.4-.5Z"/>
        <path class="cls-38" d="M205.2,517.9c.4,4.5.8,9.1,1.2,13.6.4,4.1.8,8.3,1.1,12.4.3,2.9.5,5.9.8,8.8,0,.7,0,1.4-.3,2.1-2.2.8-4.5.3-6.6,0-5.4-1-10.8-2.1-15.6-5.1-1-.6-2-.4-3-.4-14.1,0-28.3,0-42.4,0-21.4,0-42.8,0-64.2.1-7.7,0-15.3,0-23,.3-.1,0-.2-.2-.2-.4.5-1.5,1.7-1.2,2.8-1.2,3.3,0,6.6,0,9.8,0,2.9,0,3.6-.7,3.6-3.6,0-1.7.2-3.3.4-5,.2-1.6-.4-2.7-2.1-2.9-8.1-1-12.8-6.3-16.4-12.9-2-3.7-.5-6.2,3.6-6.8.3,0,.6,0,1-.4-.7-.9-1.7-1.5-2.4-2.5-2.4-3.4-1.7-6.7,2-8.4,1.3-.6,2.1-1.6,2.7-2.9,1.6-3.3,3.9-5,6.6-3.8,3.5,1.5,6.9,3.4,9.7,6,1.6,1.5,1.5,4.1.8,6.4-1.3,3.9-3.5,7.2-6.1,10.2-.7.8-2,1.5-1,2.8.6.9,2.9.8,4-.2.6-.5.9-1.1,1.2-1.8,1.8-4.6,4.1-9,6.5-13.3.7-1.3,1.3-2.6,1.2-4.1-.2-4.2.7-8.4.5-12.7,0-.8-.3-1.7.7-2.1.8-.9.7-2.1.9-3.2,1.8-11.2,5-21.9,10.5-31.9,3.8-7,8-13.9,12.1-20.7,1.3-2.2,2.3-4.6,2.6-7.2.3-2.2.6-4.4.9-6.7.5-4.8,1.6-9.4,3.8-13.8.8-.6,1.4-.1,1.9.4,2.5,2.9,5.8,4.7,9,6.7,9.8,6.1,20,11.6,31,15.5,1.6.6,3.2.9,4.9,1.3,1.3.3,2.6.9,2.8,2.6.2,1.6-.7,2.6-1.9,3.3-1.3.8-2.7,1.4-4.1,1.9-1,.3-2,.6-2.9,1.1-1.2.6-2.3,1.3-2.4,2.7-.2,1.5.9,2.4,2,3,3.9,2.3,7.9,4.1,12.2,5.4,5,1.5,9.4,3.9,13.1,7.6,2.9,2.9,5,6.1,6.3,10,.5,1.4,1.1,2.7,1.3,4.1,1.2,6.3,3.5,12,8.7,16.2.9.7,1.5,1.8,1.8,3-.2,6.2,2.7,11.8,4.2,17.6.5,1.8,1.6,3.3,2.7,4.8.9,1.3,1.5,2.7,2.1,4.1Z"/>
        <path class="cls-13" d="M343.5,262.7c5,7.4,10.7,14.2,16.4,21,.3.3.5.6.7,1,0,1.8,0,3.6.1,5.4.3,5.2-2.2,9.2-6.1,12.3-2.8,2.3-3,2.6-.3,4.8,3.3,2.6,2.9,6,2.4,9.4-.9,6.3.6,12.4,1.9,18.5.6,1.4.4,2.8.4,4.3,0,2.6.4,5.1.9,7.6.4,2,.7,2.2,2.6,1.6,8.2-2.7,16.6-4.2,25.2-4.3,1.4,0,2.7,0,4.1.2,1.5.2,1.8,0,1.4-1.5-.9-3.1-1.7-6.3-2.9-9.4-1.8-4.5-3.5-9.1-4.8-13.8-.7-2.6-1.1-5.3-.9-8.1.2-2.3.9-4.4,3-5.7,1-.6,1.2-1.3,1-2.4-.3-2.4-.8-4.7-.2-7.1.5-2.2,1.4-3.9,3.7-4.5,1-.2,1.4-1,1.8-1.8.7-1.4,1.8-2.4,3.2-3.1,1.2-.5,2.5-.6,3.7-.1,1.9.7,2.6,1.9,2.3,3.9-.3,2-.7,3.9-.9,5.9-.5,4.9-.4,9.9-.4,14.9,0,1.5-.1,2.6-1.9,3-1.5.4-2,1.6-1.8,3.2.2,1.5.6,3,.9,4.5,1,4.5,2.2,8.8,3.5,13.2.3.9.4,1.9.7,2.8-.2.8-.8.9-1.4,1-2.2.4-3,1.4-3,3.6,0,1,0,2,.4,2.8,1.1,3.1.8,6.2,0,9.3-.4,1.5-1.1,2.2-2.6,2.2-.2,0-.3,0-.5,0-6.9.5-7.9,1.8-10.5,8.2-.8,2-1.4,3.8-3.9,4.2-.8.1-1.7.6-1.5,1.6.2,1.1,1.2.6,2,.7,4.6.3,9.1,1.2,13.5,2.4,1.9.5,3.9,1,5.9.5,1.3-.3,2.4-.8,3.2-1.9.6-1,1.3-2.1,2.6-1.1,1.1.8,1.7,2.4.8,3.4-2.4,2.5-1.1,4.5.5,6.6,1.5,1.9,2.1,4.2,2.8,6.4-1.1,3.8.6,7.4,4.1,8.3,1.9.5,3.7.2,5-1.4.4-.5.9-.8,1.5-1.2,2.5-1.4,2.9-3.1,1.3-5.5-.4-.7-1.2-1.1-1.4-1.9.7-3.7,3.2-6.1,6.2-8,1.3-.8,2.6-1.5,3.8-2.5,1.8-1.6,1.7-3.3-.3-4.7-2-1.4-2-1.8-.6-3.7,2.3-3.1,5.2-5.6,7.9-8.3,2.1-2.1,2.1-3.2-.2-5.3-1.1-.9-1.2-1.9-.5-2.9,1.9-2.4,2.8-4.9,1.1-7.8,0,0,0-.3.2-.4,7.4-4.1,15.3-4.5,23.5-3.3,6.9,1.1,13.5,3.2,20.3,4.8,4.3,1,8.6,1.6,13,.6,3.6-.8,6.2,1.7,5.7,5-.2,1.3-1,2.3-2.1,3.1-1.7,1.3-3.6,2.1-5.5,2.8-.8.3-1.7.6-2.4,1.1-1.7,1.1-1.8,2-.6,3.5.8,1,1.7,1.9,2.8,2.6,1.6,1.2,3.2,2.3,4.8,3.5.7.5,1.4,1.1,1.8,1.9,1.5,2.4.6,4.6-2.1,5.4-1.3.4-2.7.5-4,.5-1.8.3-3.6.5-5.3.4.8.3,2-.4,2.9.5,1.1.7,1.7,1.7,1.3,3-.4,1.5-1.6,2-2.9,2.1-3.3.3-6.7.3-10,0-.6,0-1.1-.2-1.7-.2-.8,0-1.3.3-.9,1.2.5.9.8,1.8.1,2.7-.7,1-1.8,1.3-2.9,1.3-2.4,0-4.8.2-7.2,0-3.5-.4-6.9.2-10.3.2-1.3,0-2.7.1-3.9,1,.9,1,1.9.8,2.8.8,2.7,0,5.4.1,8.1.3,6,.5,11.5,2.7,16.8,5.3,7.7,3.6,12.9,9.8,16.7,17.3.4.7.6,1.5.8,2.2.4,1.5-.2,2.8-1.4,3.5-1.1.7-1.8.6-3.2-.6-.6-.4-1.1-.9-1.7-1.3-.5-.4-1.1-.8-1.7-.4-.7.5-.4,1.1-.2,1.7,0,0,0,.2,0,.2,2.3,4.6,3.1,9.6,3.5,14.6,0,1.1.3,2.1,1.1,2.8,1.6,2.5,1.4,4.4-1,6.2-1.1.8-1.6,1.8-1.9,3.2-1.2,5.8-5.2,7.7-10.5,4.9-3-1.6-5.6-3.6-8.1-5.9-2.3-2-2.8-1.9-4.2.7-1.7,3-3.5,3.6-6.8,2-1-.5-1.7-.5-2.6.2-2.5,1.9-3.8,1.8-6.3-.2-1-1.2-1.1-2.7-1.9-4-1.1-2-2.2-4-4.8-4.3-.3-2,.4-4,.5-5.9.3-4.5.9-9.1,1.2-13.6.4-7.6-4.4-13.7-11.9-14-6.9-.3-13.7-.3-20.6-.4-15.4,0-30.8,0-46.2,0-1,0-2.1,0-3.1,0-.7-1.7.8-2.1,1.6-2.7,5.2-4.3,10.7-8.2,16.8-10.9.4-.2.7-.3,1.2-1-6.2.2-11.6,1.8-16.3,5.6-1.3,1.1-2.5,2.2-3.9,3.2-3.5,2.4-6.3,1.5-7.9-2.7-.7.4-1.2,1.4-2.2,1-.3.1-.6.3-.9.4-2.1.8-3.5,0-3.8-2.2-.4-2.8-.8-5.5-.3-8.3.1-.7.1-1.4.2-2.1,0-.7-.2-1.2-1-1.4-2.1-.5-2.5-2-2.4-3.8.2-4.4,1.4-8.5,3.1-12.5,1.3-3.1,1.1-3-1.8-3.4-1.7-.2-3.3-.6-4.8-1.3-1.2-.6-2-1.4-1.9-2.8,0-1.4,1.1-2.1,2.3-2.4,2.5-.6,4.9-1.6,7.2-2.5,2-.7,2-1,.8-2.7-3.5-4.9-6.5-10-8.8-15.6-.9-2.2-1.5-4.6-1.7-7-.2-2.2.5-3.6,2.5-4.3,1.1-.4,1.2-1.1,1-2-.5-1.9-1-3.9-1.6-5.8-1.2-3.7-2.1-7.5-2.8-11.4-.8-4.2-1.6-8.3-2.4-12.5-.2-1.2-.3-2.4-.1-3.6.2-1.2.7-2.3,2-2.8,1.3-.5,1.5-1.4,1.4-2.6-.3-6.3-.3-12.6,0-18.9Z"/>
        <path class="cls-29" d="M245.5,253c-3.2-2.2-5.9-4.8-7.6-8.4-1.3-2.7-1.3-5.2.4-7.7,1.9-3,2.9-6.5,4.8-9.6.7-1.7,1.4-3.4,2.1-5.1,3.1-7.3,6.4-14.5,9-21.9.2-.6.5-1.2.7-1.8,2.1-4.9,6.4-6.9,11.6-5.2,3.7,1.2,7,3.1,10.1,5.5,2.7,2.1,5.2,4.3,7.5,6.8,4.5,4.8,9.2,9.6,13.2,14.9,3.9,5,7.9,9.8,12.3,14.4,6.7,7,14.7,12,23.8,15.3,4.5,1.6,5.2,2.9,4.1,7.5-.9,3.8-1.9,7.6-3.1,11.3-3,9.7-4.9,19.7-7.7,29.4-1.5,5.4-2.6,10.9-3.9,16.3-.8,3.3-1.9,6.4-3.8,9.3-.9,1.1-1.5,2.5-2.9,3.1-3.1,1.4-6.3.8-8.4-1.9-1.8-2.3-3.7-4.6-5.2-7.2-1.1-1.9-2.5-3.5-3.8-5.3-4-5.5-7.2-11.5-10.3-17.5-2.8-5.4-5.9-10.6-9-15.8-2.3-3.8-4-7.8-6.4-11.5-2.2-1.7-3.1-4.3-4.3-6.7-4.5-9.2-8.8-18.6-12.9-28.1-.4-.9-.8-2.1-2.1-2-1.2.1-1.3,1.2-1.6,2.1-1.8,5.5-3.4,11.1-4.4,16.9-.2,1.1.2,3-2,2.8Z"/>
        <path class="cls-29" d="M159.7,237.1c1.5,6.4,1.4,13,2.2,19.5.2,1.8.2,3.7,0,5.5-.2,5.4.8,10.7,1.2,16,.2,3,.7,6,.7,9.1,0,2.9.2,5.7.6,8.6.3,2.2.4,4.5.4,6.7,0,3.5.4,7,.8,10.5.2,2.1.3,4.1.4,6.2.2,3.1-1.8,4.8-4.8,4.4-.7,0-1.4-.3-2.1-.6-5.2-1.9-9.8-5-14.1-8.4-3.2-2.5-6.5-4.9-9.4-7.7-1.6-.2-2.9-1.1-4.1-2.2-8.2-7.6-15.8-15.8-23.5-23.8-.5-.5-1-1.2-1.8-.9-1,.3-1,1.2-.9,2,0,2.4,1,4.5,1.8,6.7,3.7,9.2,8.4,17.9,14.1,26.1.7,1,1.3,2,.6,3.3-3.4,1.8-7.1,1.6-10.7,1.4-2.3-.2-4-1.5-5.1-3.5-.3-.5-.6-1.1-.9-1.7-2.2-5.8-4.5-11.4-7.9-16.6-1.7-2.6-3.4-5-5.3-7.4-4.2-5.2-8.2-10.6-11.8-16.3-.9-1.4-1.7-2.7-2.2-4.3-.6-2,.3-3.7,2.3-3.9,5-.7,9.5-2.8,13.7-5.3,6.9-4.1,12.9-9.3,19.1-14.4,11.7-9.7,21.4-21.2,30-33.8,2-3,4.1-5.9,6-8.9.4-.6.8-1.2,1.3-1.7,1.5-1.4,3.5-.9,4.3,1,.2.4.2.9.3,1.4,2.2,8,2.9,16.2,3.8,24.4.4,3,.9,6,1,9Z"/>
        <path class="cls-13" d="M438.7,560.2c.2-1,0-1,.1-2.1s-.2-1.8,0-3.5c.2-3.2.2-5.1.4-8,.5-6,.6-12.3,1.1-18.3.7-1.4,1.8-2,3.3-2.3,2.8-.6,5.6-1.5,8.5-.9,4.9,1,7.4,4.1,7.5,9.1,0,.7-.2,1.4.2,2.3,1.3-.4,2.3-1.4,3.2-2.2,1.6-1.4,3-3.1,4.6-4.5,1.2-1.2,2.7-1.9,4.3-1.1,1.8.9,3.2.3,4.5-1.1,3.8-3.9,7-8.3,9.7-13,.8-1.3,1.6-2.6,2.5-3.8,1-1.3,2.3-2.2,4.1-2.2,1.6,0,2.6-.7,2.9-2.2.8-4.9,1.6-9.7,1.1-14.8-.4-4.5-.6-9.1-1.7-13.5-.2-.6-.3-1.2-.5-1.9-.3-.9-.3-2.1-1.5-2.3-1.2-.2-1.6.9-2.1,1.7-2.7,4.2-5.3,8.4-8.5,12.2-2.5,3-5.4,5.7-9,7.3-2.2,1-4.4,1.4-6.3-.1-1.9-1.5-2.4-3.8-2.1-6.1.5-4.3,1.1-8.5,1.7-13.2-2.5,2.7-5,5-7.4,7.4-2.3,2.3-3.7,2.3-6.2.2-1-1.4-1-3.1-.7-4.6.7-3.8.2-7.5-.3-11.2-.3-2.2-.3-4.3-.2-6.4.2-2.6,1.5-4.5,3.8-5.7,2-1.1,4.3-1.3,6.5-1.6,8.1-1.3,16.2-2.7,24.4-3.6,3-.3,5.9-1.3,8.6-2.8,2.2-1.2,3.2-.8,3.8,1.7.9,3.9,1.5,7.8,2.8,11.6.7,2.1,1.6,4,3.8,4.9,1.3.5,1.4,1.8,1.5,3,.3,2.6.6,5.3,3.6,6.5.3.2.5.4.7.6.5,1.2.4,2.4.3,3.6-.6,6.6-1.1,13.2-2.2,19.7-.7,1.9-.6,3.7,0,5.6.5,1.4.7,2.9.8,4.4.2,1.3-.1,2.5-1.2,3.5-.9.8-1.5,1.8-1.5,2.9.2,4-.9,7.7-2.2,11.3-4.7,7-10.2,13.4-16.8,18.8-1.3,1.1-2.5,2.1-4.2,2.5-1.6.4-3.2.5-4.4-1-.8-1.1-1.9-1.3-3-.7-2.4,1.4-5.1,1.7-7.7,2.6-2,0-3.7.9-5.4,1.9-2.1,1.3-4.2,2.6-5.9,4.4-2.8,2.9-5.9,5.7-8.3,8.9-1.4,1.9-3,1.9-4.6.1-1.1-1.1-1.6-2.6-2.2-3.9-.3-.6-.3-1.2-1-1.7-1,.7-2,1.6-3.3,1.6Z"/>
        <path class="cls-16" d="M195.1,491.5c-1.3-2.4-2.9-4.6-5.2-6.2-1.8-1.3-2.9-3-3.4-5.3-.7-3.5-1.9-6.9-2.9-10.4-3-9.5-9.6-15.2-18.9-18.1-4.3-1.3-8.3-3.2-12.3-5.3-.8-.4-1.5-.9-2.2-1.5-1.5-1.3-1.6-3.2-.4-4.7.9-1.1,2-1.8,3.3-2.2,1.9-.6,3.8-1.1,5.6-2.1.6-.3,1.1-.6,1.6-1.1.9-.9.7-2-.4-2.6-.4-.2-.9-.4-1.3-.5-6.5-1.5-12.5-4.3-18.5-7.1-7.9-3.7-15.2-8.4-22.6-13-2-1.3-3.4-3.1-5-4.8-1.8-4.7-1.6-9.4-.7-14.2.6-3,1.5-5.9,2.6-8.7.4-1,.8-1.9,1.6-2.6,0-.1.2-.3.3-.4,0,0,0,0,0,0,.3.3.7.6,1,1,2.2,3.6,5.2,6.7,8,9.8,2.2,2.5,4.6,4.9,7.4,6.7,1.5,1,2.7,2.3,3.4,3.9,1.5,3.2,4,5.3,6.7,7.4,5.4,4.2,11.7,6.1,18.4,6.9.4,0,.8.1,1.2,0,4.4-1.2,8.7.3,13,1,2.8.5,5.5,1.5,8.4,1.8,4.1.4,8.1.8,12.2.8.8,1.9.5,3.9.7,5.9.7,6,1.1,12.1,1.6,18.1.6,6.4,1.2,12.7,1.7,19.1.5,5.9,1.1,11.8,1.6,17.7.6,6.4,1.2,12.9,1.8,19.3.2,2.2.4,4.5.6,6.7-1.2,1.3-2.2.6-3-.3-1.2-1.3-2-2.9-2.6-4.5-1.2-3.1-2.2-6.2-3.5-9.2-.2-.4-.2-.8,0-1.1Z"/>
        <path class="cls-5" d="M508.3,499.1c0-.9-.1-1.8,0-2.6,1.4-5.6,1.5-11.4,1.9-17.1.3-1.1.3-2.2,0-3.3,0-.1,0-.3,0-.4-.9-1.4-.6-3.1-.8-4.7-.6-5.2-2.1-10.1-3.5-15.1-.9-3.3,0-4.2,3.2-3.4.4,0,.8.2,1.2.3,1.5.4,3.1.7,4.2-.7,1.1-1.4.8-2.9,0-4.3-1.8-3.7-4.3-6.9-7-9.9-1.3-1.5-2.6-3-3.9-4.6-1.1-1.4-.8-2.1,1-2.3,1.8,0,2.5-1.1,2.8-2.7.2-1,.2-2.1.5-3.1.5-1.8,1.4-3.4,3.5-3.8.6-.1,1.2-.5,1.8-.7.6.3,1.1.7,1.4,1.3,1.9,3,4.5,5.4,6.8,8,3,3.4,6.8,6.1,10.6,8.5,1,.6,2,1.3,3,2,1,.8,1.5,1.9,1.1,3.2-.4,1.2-1.4,1.7-2.6,1.8-1.6.1-3.2,0-4.8-.4-2.2-.5-2.4-.3-1.7,1.9.2.8.4,1.6.8,2.3,2,4,3.9,8,6.2,11.9,5.2,8.6,10.1,17.4,12.9,27.2.3,1,.6,2,.7,3,.2,2.4-1.9,3.7-4,2.6-.8-.4-1.3-1.2-2.4-1.4-.5.9-.3,1.8-.1,2.7.6,3.9,1.4,7.7,2.4,11.5,2.5,8.8,4.6,17.8,5.8,26.9.6,4.9,1,9.9-.4,14.8-5.5.6-11,.1-16.5.2-1,0-1.6-.6-1.7-1.6-.2-1.9-.6-3.8-.6-5.7-.3-12.5-2.7-24.6-7.3-36.2-.7-1.9-1.6-3.7-2.8-5.3-1.4-1.9-2.7-1.8-3.8.3-.5,1-.8,2.1-1.4,3-.9,1.4-2.2,2.5-4,1.9-1.8-.5-2-2.1-2-3.7,0-.9.3-1.7-.5-2.4Z"/>
        <path class="cls-16" d="M82,490c.8,2.5.6,5.1.3,7.6-.3,2.5-.4,4.9-.3,7.4,0,1.4-.3,2.7-1,3.9-2.8,4.8-5.3,9.7-7.1,14.9-.5,1.5-1.5,2.2-3,2.2-1.6,0-3.2-.1-4.7-.6-1.6-.5-1.7-1.1-.5-2.4,1.6-1.6,3.1-3.2,4.4-5,1.5-2.2,2.8-4.4,3.7-6.9.4-1.2.6-2.5.3-3.8-.6-2.7-1.7-3.7-4.5-3.6-1.4,0-1.8-.7-2.3-1.7-.8-1.7-2.2-2.4-4.1-2.4-1.3,0-2.3.6-3.1,1.6-.7,1-1.3,2-1.5,3.2-.2,1.2-.9,1.7-2.1,2-3.6.8-4.5,3.6-2.3,6.6.6.9,1.4,1.5,2.3,2.1.8.5,1.6,1,2.2,1.9-1.3.7-2.5.7-3.8.8-3,.2-4.2,1.9-2.9,4.5,2.8,5.6,6.5,10.2,12.8,12.2,1.3.4,2.7.5,4,.5,2.3,0,2.5.3,2.3,2.5-.3,2.9-.7,5.9-.6,8.8,0,2.1-.4,2.5-2.5,2.5-5,0-9.9,0-14.9.1-.1-.1-.3-.2-.3-.3-5.7-9.5-11-19.3-15.4-29.4-.1-.3,0-.7-.4-1,0,0,0,0,0,0,.6-2.9,1.2-5.8,1.9-8.7,1.6-6.6,5.3-12,10.2-16.5,4.5-4.2,10.1-6.4,16.3-6.9,5.8-.5,11.3.3,16.4,3.4.2.1.3.2.5.4h0Z"/>
        <path class="cls-13" d="M521.6,352c-1.3.8-2.6,1.6-3.9,2.3-3,1.6-5.1.4-5.1-3,0-1.8.6-3.5,1-5.1,1.2-4.3,2.4-8.6,2.3-13.2,0-2.5-.4-4.9-1.8-7.1.5-5.3-.2-10.5-2.5-15.3-.8-1.7-1.3-3.2.7-4.5,1.1-.7.9-1.8-.2-2.6-1-.8-2.1-1.4-3.3-1.9-1.2-.5-2.3-1.1-3.3-2-2.1-1.8-2.1-3.1-.4-5.2,1.5-1.9,3.5-3.5,3.1-6.3,4.9-4.4,9.3-9.3,13.6-14.3.5-.6,1.1-1.1,1.7-1.7.6,0,1.1,0,1.7.1,1.6.2,2.6,1,3.1,2.6.5,1.7.9,3.4,1,5.2.1,5.3.6,10.7.5,16,0,2.3-.4,4.6-.5,6.9,0,1.6.2,2.8,2,3.2,1.6.4,2.3,1.8,2.8,3.3,2,6.6,2.1,13.2,0,19.8-2.7,8.4-6.9,15.9-12.6,22.7Z"/>
        <path class="cls-12" d="M508.3,499.1c.8.2,1.3.7,1.2,1.5,0,.3,0,.6,0,1,.1,1.3.8,2.3,1.9,2.4,1.2.2,2-.5,2.5-1.5.5-1,.9-2.1,1.3-3.1.4-.9.7-1.8,1.4-2.5,1-1.1,1.5-1.1,2.6-.2,1.3,1.2,2.3,2.7,3.1,4.3,3.2,6.2,5.2,12.7,6.6,19.5,1.5,7,2.6,14.1,2.5,21.4,0,1.6.3,3.2.4,4.8,0,1.3.8,1.8,2,1.8,2,0,4,0,6,0,3,0,6.1,0,9.1,0-.6.5-1.4.4-2.1.4-6.5,0-13.1,0-19.6,0-.7,0-1.4,0-2.1-.3-1.2-.3-1.1-1.4-1.2-2.3-.8-4.2-1.1-4.7-5.3-4.7-3.2,0-5.3-1.8-7.2-4.1-1-1.2-1.7-2.5-2.3-3.9-.7-1.8-1.7-3.4-3.6-4.2-1-.4-1.7-1.2-1-2.5,0-1.6.1-3.1,1.2-4.5.6-.8.6-1.9.6-3,0-1.4,0-2.9,0-4.3,0-1.5,0-2.9,1.9-3.6,1.3-.5,1.1-2,.8-3.2-.7-3-1-6.1-.8-9.2Z"/>
        <path class="cls-1" d="M504.5,527c.5,1.2,1.3,1.9,2.6,1.6,1.1-.2,1.4.4,1.7,1.2.6,1.4,1.2,2.8,1.9,4.1.5,1.2,1.2,2.2,2,3.2,2.3,2.9,5.1,4.2,8.8,3.1,1.8-.5,2-.3,2.6,1.4.7,2.3,1.3,4.6,1.1,7-.8.3-1.5.3-2.3.3-17.5,0-35,0-52.6,0-.2,0-.5,0-.7,0,3.1-2.1,6.6-3.4,10.1-4.8.7-.3,1.1,0,1.2.7,0,.3,0,.6.2.9.6,1.6,1.6,2.1,3.2,1.4,1.3-.6,2.5-1.4,3.6-2.3,5.8-4.7,10.7-10.3,15.1-16.3.5-.6.9-1.4,1.7-1.6Z"/>
        <path class="cls-1" d="M357.2,394.1c.9-1.4,1.9-2.8,3-4.4.7,1.1.4,2,.5,2.9.4,2.9,2.5,4.1,5.2,2.8,1.7-.8,2.9-2.2,4.3-3.4,5.7-4.6,12.2-6.5,19.4-6,.6,0,1.3.1,1.9,1-4.3,2-8.5,3.9-12.5,6.4-3.9,2.5-7.4,5.6-11.1,8.3-3.4,0-6.8,0-10.2,0-.7-2.5-.2-5.1-.5-7.6Z"/>
        <path class="cls-38" d="M116.5,380.6c0,.1-.2.3-.3.4,0-.1.2-.3.3-.4Z"/>
        <path class="cls-38" d="M82,490c-.2-.1-.3-.2-.5-.4.2.1.3.2.5.4Z"/>
        <path class="cls-10" d="M36.9,518.3c.3.3.5.6.4,1-.4-.2-.5-.6-.4-1Z"/>
        <path class="cls-16" d="M198.1,407c-1.6.7-3.3,1-5.1,1-4.7,0-9.4.2-14.1-.5-4.6-.7-9.1-1.9-13.4-3.6-1.9-.7-3.8-1.3-5.4-2.5-.8-.6-1.8-.7-2.8-.4-2.6.6-5.1.2-7.6-.3-4.9-1.1-9.4-3-13.6-5.7-1.1-.7-2-1.6-2.7-2.7-.7-1-.6-2.3,0-2.9.8-.7,1.8-.6,2.7-.1.5.3.9.6,1.4.9,4,3.1,8.7,4.9,13.6,5.5,5.9.8,11.4-.4,16.3-4.1,1.4-1,2.2-2.5,3.4-3.7,3.4-3.1,6.5-6.6,9.5-10.1,2.3-2.7,4.3-5.7,6.9-8.3,5.7-5.5,12.2-9.5,19.9-11.5,2.5-.7,5-1.8,7.7-1.4,1.3-.8,1.9.5,2.6,1,2.5,1.8,2.9,1.8,5.3,0,1.2-.9,2.5-.9,3.6-.2,2.1,1.1,4,2.6,4.4,5.1.4,2.3,1.5,3.7,3.8,4,2.2.3,3.8-1,5-2.7.3-.4.5-.8.6-1.3.7-3.3,2.3-5.5,6.1-5.6,1.6,0,2.2-1.5,2.4-2.9.2-1.3,0-2.6.1-3.8,0-.8,0-1.8,1.1-2.1.7,1.2.4,2.5.5,3.8.1,1.6.4,1.8,1.9,1.7,3.4-.2,6.5.7,9.4,2.3,1.5.8,2.9,1.6,4.4,2.5,4.7,3,9.9,5.2,14.6,8.2,3.1,2,6.1,4,9.4,5.7,5.5,2.9,11.3,4.7,17.6,4.6,1,0,2.1-.2,3.1-.3,1.6-.2,2.6.4,2.8,1.6.2,1.2-.5,2.2-2.1,2.4-2.6.4-5.2,1-7.8.4-1.4-.3-2.2.1-3,1.3-3.1,5.2-8,8.1-13.2,10.6-3.8,1.8-7.7,3.6-12,3.8-.8,0-1.7.5-2.5.8-2.3,1-4.6.5-6.8,0-7.9-1.8-14.8-5.4-21-10.5-3.1-2.5-6.4-4.8-8.4-8.4-.8-1.5-1.7-1-2.4.3-3.7,6.1-7.5,12.2-12.3,17.6-1.6,1.7-3.2,3.3-5.4,3.4,1.6-.4,3.6-.3,5.5-.3,15,0,30,0,45,0,1.3,0,3-.5,3.9,1.2,0,.1,0,.3,0,.4-5.8,0-11.5,0-17.3,0-13.9,0-27.8,0-41.7,0-5.1,0-9.6,1.3-13.1,5.2-.2.2-.5.4-.7.6Z"/>
        <path class="cls-1" d="M454.2,483.4c1.9.9,3.4.4,4.6-1.3.6-.8,1.4-1.3,2.1-2,2-1.9,3.9-3.8,5.5-6,.5-.6.8-1.4,1.5-1.7.7.5.3,1.1.3,1.6-.6,4.9-1.3,9.8-1.9,14.7,0,.6-.2,1.3,0,1.9.3,3.4,2.7,4.9,5.9,3.7,2.5-.9,4.6-2.5,6.6-4.3,2.6-2.5,4.8-5.3,6.8-8.3,1.8-2.7,3.5-5.5,5.4-8.2.6-.9,1.1-2.2,2.4-2,1.4.2,1.8,1.5,2.1,2.7,1.1,3.9,1.9,7.8,2.3,11.7.6,6.4.7,12.8-.4,19.1-.2,1.3-.5,2.5-.9,3.7-.3,1.2-1.1,1.8-2.3,1.3-2.1-.8-3.5.2-4.7,1.9-2.1,3.1-3.8,6.5-6.1,9.5-2.4,3.3-5,6.4-8.2,9-.9.8-1.7,1.4-2.7,0-.9-1.1-2-1.1-3.2-.3-.7.5-1.3,1.1-2,1.8-2,2-4,4.1-6.3,5.8-.9.6-1.7,1.5-2.7,1.7-.6-.6-.3-1.1-.2-1.6.1-.9.4-1.9.5-2.8.5-5.4-3.4-9.3-8.8-8.7-3.2.3-6.3,1.1-9.3,2.2.6-7,1.1-14,1.7-21,.2-2.1,0-4.3,1-6.3.6-5,3.9-8.5,6.5-12.4.6-1.7,1.9-3.1,2.9-4.6.4-.7,1-1,1.8-.8Z"/>
        <path class="cls-8" d="M323.9,566.8h-105c-.2,0-.3,0-.5,0-1.3-.2-3,.6-3.7-.8-.8-1.7-.5-3.8,0-5.6.2-.7.8-1,1.5-1.1.7,0,1.5-.1,2.1,0,2.1.4,4.3.3,6.5.3,64.2,0,128.4,0,192.5,0,4.6,0,9.2.6,13.9.5,2,0,2.7.7,2.8,2.7,0,.4,0,.8,0,1.2-.1,1.9-.7,2.6-2.6,2.7-.9,0-1.8,0-2.6,0-34.9,0-69.9,0-104.8,0h0Z"/>
        <path class="cls-12" d="M454.2,483.4l-3.9,5.8c-2.1.3-3.1-.7-3.4-2.7-.4-2.9-.3-5.7.1-8.6.8-5-.2-9.9-1.5-14.7.4-4.7.9-9.4,1.3-14.2,0-.7.3-1.4.5-2.1,1.1-1.9,5.4-3.8,7.7-3.5.2,0,.3,0,.5.1,3.2,1.5,4,1.3,5.7-1.8.2-.4.3-.9.8-1.1.8.3,1,1.2,1.5,1.8,1.8,2,4.1,1.9,5.5-.4.6-1,.8-2.1,1.2-3.1.6-2,.8-2,2.3-.7,2.7,2.4,5.5,4.9,8.6,6.9.9.6,1.9,1.2,2.9,1.7,4.1,1.9,7.4,0,7.9-4.4,0-.5.1-1.1,0-1.7-.2-1.3.1-1.9,1.5-2.1,1.5-.2,2.3-1.3,2.4-2.9,0-.9,0-1.8.1-2.6.1,0,.2,0,.3,0,.5.2,1,.3,1.5,0,1-.5,1.3-1.5,1.8-2.4,1.1-1.8,1.7-1.9,3.4-.7.5.4,1,.7,1.5,1.1-1,.6-.4,1.2,0,1.8,1.2,1.4,2.4,2.8,3.6,4.1,2.6,2.7,4.5,5.8,6.6,8.8.8,1.2,1.3,2.5,1.5,4,.4,3.2-1.6,5.3-4.8,4.8-1.2-.2-2.3-.6-3.5-.9-1.3-.3-1.6,0-1.3,1.4.3,1.4.8,2.8,1.2,4.1,1.3,4,2.1,8.2,2.6,12.4.2,1.4.2,2.9-.5,4.2-2.6.3-3.2-.2-3.6-2.5-.3-1.5-.5-3-.6-4.5-.1-1.1-.4-1.9-1.8-2.1-1.8-.3-2.3-1.9-2.8-3.3-1.4-3.9-2.5-7.9-3.1-12.1-.1-.8-.3-1.6-.5-2.3-.2-.8-.7-1-1.4-.6,0,0-.1,0-.2.1-4.3,2.9-9.3,3.2-14.2,3.8-5.6.6-11.2,1.8-16.8,2.6-1.7.3-3.5.5-5.2.7-1,.1-2,.4-3,.8-2.2,1-3.5,2.7-3.7,5.2-.2,3,.3,5.9.6,8.8.3,2.8.5,5.6,0,8.4-.3,1.6-.2,3.2.4,4.7Z"/>
        <path class="cls-36" d="M337.4,507.3c-.7,1.6-.7,3.1-1.1,4.5-.7,2.5-1.4,3.2-4,3.3-5.5.1-11,.2-16.5.3-.6,0-1.3,0-1.9-.2-1.7-.4-2.4-1.5-2-3.2,0-.5.3-.9.4-1.4,4.1-12.8,8.1-25.6,12.3-38.4.6-1.8.5-3.4,0-5.1-2.7-8.1-5.4-16.2-8.1-24.3-.2-.6-.4-1.2-.6-1.8-.6-2.4.5-4.1,2.9-4.1,5.8,0,11.5-.1,17.3.2.6,0,1.1.1,1.7.3,1.6.4,2.3,1.4,2,3-.2,1-.5,2-.8,3-2.5,8-5,16-7.6,24-.5,1.6-.6,3,0,4.6,1.3,3.7,2.5,7.4,3.7,11.1.2.7.2,1.4,1,2,.5-.5.5-1.3.7-1.9.7-3.5,1.3-7.1,2-10.6.2-.9.4-1.7.7-2.5.4-1,1.3-1.5,2.3-1.4,1.2.1,1.8.9,2.1,2,.2.8,0,1.6-.2,2.4-1.3,6.8-2.5,13.5-3.8,20.3-.4,1.9-.3,3.6.3,5.4,1.2,3.5,2.3,7,3.5,10.5.2.7.5,1.4.6,2.1.2,1.4-.4,2.5-1.5,2.9-1.1.4-2.3,0-3-1.4-.5-1-.8-2.1-1.2-3.1-.3-.8-.4-1.7-1.2-2.4Z"/>
        <path class="cls-36" d="M284.5,476.2c0-11.2,0-22.4.1-33.6,0-4.8.6-5.4,5.5-5.3,4.2,0,8.5,0,12.7.1,2.3,0,3.2.8,3.2,3.2,0,6.4,0,12.8,0,19.2,0,.4,0,.8-.2,1.2-.3,1.1-1,1.8-2.2,1.8-1.1,0-1.8-.6-2.1-1.6-.3-.8-.3-1.6-.3-2.4,0-4.3,0-8.6,0-13,0-.6,0-1.3,0-1.9,0-1.1-.6-1.6-1.6-1.6-2.8,0-5.6,0-8.4,0-1.2,0-1.7.6-1.7,1.8,0,.3,0,.6,0,1,0,19.8,0,39.7,0,59.5,0,1.5,0,3,0,4.6,0,1,.5,1.5,1.5,1.4,3.2,0,6.4-.1,9.6-.2,1,0,1.4-.6,1.4-1.5,0-3.3-.1-6.6-.2-9.8,0-1.1-.5-1.6-1.6-1.6-1.1,0-2.2,0-3.4,0-1.6-.1-2.6-1-2.7-2.2,0-1.3,1-2.4,2.7-2.5,2.1,0,4.2-.1,6.2,0,2.3.1,3.4,1.4,3.7,3.7,0,.6,0,1.3,0,1.9,0,3.4.1,6.9.1,10.3,0,1.1,0,2.2-.2,3.3-.3,2.2-1.2,3-3.5,3.2-.7,0-1.4,0-2.2,0-3.7,0-7.3.2-11,.2-.8,0-1.6,0-2.4-.1-1.9-.4-2.9-1.6-3-3.5,0-1.3,0-2.6,0-3.8,0-10.6,0-21.1,0-31.7Z"/>
        <path class="cls-36" d="M350,476.1c.2-11.1.3-22.2.5-33.3,0-.9,0-1.8,0-2.6.1-2.1,1-3.3,2.5-3.2,1.4,0,2.2,1.2,2.3,3.4,0,.3,0,.6,0,1-.2,18-.5,36-.7,54,0,4.2-.1,8.5-.2,12.7,0,2.2,0,2.3,2.3,2.3,4.2,0,8.3,0,12.5,0,.8,0,1.6,0,2.4.3,1,.4,1.5,1.2,1.5,2.2,0,1.2-.7,1.9-1.8,2.2-.5.1-.9.1-1.4.1-5.3,0-10.5,0-15.8,0-.7,0-1.4,0-2.1-.1-1.4-.2-2.1-1-2.2-2.4,0-.7,0-1.4,0-2.2.1-11.4.3-22.9.4-34.3,0,0,0,0,0,0Z"/>
        <path class="cls-5" d="M445.6,463.1c.6-.6,1.1-.6,1.3.4.5,2.5.9,5,1.4,7.5.5,2.7.5,5.4-.2,8-.5,1.9-.2,4-.2,6,0,1.9,1.3,3,2.4,4.2-.6,1.7-1.9,2.9-2.7,4.4-1.4,2.5-3,5-4.6,7.5-.5-.8-.5-1.7-.4-2.6.4-4.5.7-9,1.1-13.5.4-4.7.8-9.5,1.2-14.2.2-2.5.4-5.1.6-7.6Z"/>
        <path class="cls-6" d="M327.5,525.8c-.3-2,.3-3.9,2.6-5,1.9-.9,5.4-.1,6.9,1.8,1.3,1.6,1.1,4.1-.6,5.9-1.1,1.3-2.5,2.1-4.2,2.6-2.8.7-4.5-.6-4.7-3.4,0-.5,0-1,0-1.8Z"/>
        <path class="cls-32" d="M346,530.8c-3.3,0-5.6-2.1-5.9-5.3-.3-3.1,2.1-6.2,5.1-6.6.7-.1,1.4-.1,2.1.1,1.8.6,2.3,2.3,1.1,3.8-1.5,1.9-1.5,2.1.4,3.4.8.5,1.3,1.2,1.2,2.2,0,1.1-.7,1.7-1.7,2.2-.7.3-1.5.4-2.3.4Z"/>
        <path class="cls-6" d="M323.6,525c0,2.5-2.9,5.6-5.5,5.8-2.4.1-5-2.4-5.1-4.8,0-2.8,2.8-6,5.4-6,2.5,0,5,2.5,5.1,5.1Z"/>
        <path class="cls-20" d="M195.1,491.5c.3.7.6,1.4,1,2.1,1.3,2.3,2.5,4.6,3.3,7.1.5,1.5,1.2,2.9,2.1,4.2.6,1,1.4,1.7,2.6,1.8.3,3.7.7,7.4,1,11.1-4-3.8-6.5-8.4-7.7-13.8-.7-3.3-1.6-6.5-2.4-9.8-.2-.9-.6-1.8,0-2.8Z"/>
        <path class="cls-32" d="M306.5,525.5c.4.6,1,.5,1.4.7,1.1.4,1.8,1.1,1.7,2.3,0,1.1-.8,2-2.1,2.4-2.8.8-6.2-1.7-6.4-4.6-.2-3.6,3.5-7,7-6.5.6,0,1.3.3,1.8.6.9.6,1.3,1.4,1.1,2.5-.2,1.1-1,1.6-2,1.7-1.8.3-1.8.3-2.6.9Z"/>
        <path class="cls-30" d="M455,443.4c-2.3,1.8-5,2.7-7.7,3.5-.5-.9-.2-1.9,0-2.8.2-2.8.4-5.5.7-8.3,0-.2.2-.4.3-.7.6-1.5.8-1.6,1.9-.6,2.6,2.4,4.5,5.3,4.9,8.9Z"/>
        <path class="cls-29" d="M249.8,348c0,1.9,0,3.8,0,5.7,0,1.3-.4,2.5-1.3,3.5-.7.8-1.5,1.2-2.7,1.2-2.4-.1-3.3.6-4,2.8-.2.8-.4,1.5-.7,2.3-1,2.4-3,3.7-5.3,4.5-1.8.6-3.3-.9-4.8-1.6-1.1-.5-1.2-1.6-1.2-2.7,0-2.3-1.4-3.7-3.1-4.8-1.4-1-2.3-.8-3.5.5-1.7,1.8-2.4,1.9-4.5.6-1.4-.9-2.7-1.9-3.7-3.3-.3-.8-.5-1.5-.8-2.3-1.2-3.3-.4-6.1,1.8-8.6,2.1-2.4,4.8-3.9,7.7-5.2,6.4-2.9,12.9-3.6,19.6-1.2,3.9,1.4,6,4.6,6.7,8.6Z"/>
        <path class="cls-16" d="M168.8,326.9c-.2-.7.2-1.2.5-1.8,2-3.7,4.7-7.1,7.3-10.4,2.4-3,5.9-3.9,9.7-3.6,3.7.3,6.9,2,9.5,4.6,4,4,7.5,8.5,10.6,13.3,1.5,2.4,2.6,4.9,4.1,7.3.7,1.1,1.5,2.1,2.2,3.1,1.2,1.8.8,3.4-1,4.5-1.1.6-2.1.7-3.1-.2-.4-.3-.7-.6-1-1-.7-.7-1.3-.7-2,.1-1.5,1.9-2.9,3.8-4.7,5.4-5.9,4.9-12.1,9.2-19.9,10.4-5.7.8-11.3.4-16.9-1.1-2.3-.6-4.6-1.3-6.8-2.2-2.6-1.1-4.5-3-6-5.3-1-1.7-.8-3.6.8-5.3,1.1-1.1,2.4-2.1,3.6-3.2,3.6-3.4,6.7-7.3,9.6-11.3.6-.8.9-2,2.1-2,1.3,1.2,2.3,2.6,3.7,3.6.2,1.1-.5,1.6-1.4,1.8-1.3.4-2.3,1.1-3.1,2.1-2.6,3-5.4,5.8-7.7,9.2-.4.7-.9,1.3-1.2,2.1-.7,1.9-.2,3.6,1.8,4,7.5,1.7,15.1,3.4,22.9,1.4,6.8-1.8,12.2-5.7,16.8-10.9,2.7-3.1,3.2-6.2,1-9.8-2.7-4.5-5.8-8.6-9.8-12-3.2-2.8-6.6-2.8-10.1-.3-2.1,1.5-3.6,3.6-5,5.7-.8,1.1-1.6,2.2-2.9,2.8-1.4.3-2.6.2-3.5-1.1Z"/>
        <path class="cls-29" d="M270.9,400.8c-18.9,0-37.9,0-56.8-.1-.1,0-.2-.2-.5-.4.7-.8,1.8-1,2.7-1.4,2-.7,3.5-2,4.9-3.6,3.3-3.7,5.9-7.9,8.7-12,1.8-2.6,3.4-5.2,4.5-8.2.2-.4.3-.9.9-1.1.8.2.9,1,1.2,1.6,1.7,3.4,3.9,6.4,7.1,8.5,1.7,1.1,3.3,2.6,4.9,3.8,6.6,5,14,7.9,22.2,8.9.7,0,1.4.2,2.1.5-.4,1.2-1.1,2.3-1.9,3.3Z"/>
        <path class="cls-16" d="M278.7,350.4c-3.1-.3-6.2-.8-9.2-1.7-4.2-1.2-8.3-2.8-11.8-5.7-.7-.6-1.4-1.2-2-2-.5-.8-1.2-.9-2.1-.5-.6.3-1.2.6-1.8.7-1.2.2-2.2,0-2.9-1.2-.7-1.1-.5-2.1.3-3.1.2-.2.4-.5.7-.7,2.3-1.6,3.3-4.1,4.4-6.5,2.2-4.7,4.3-9.4,6.6-14.1,2.8-5.5,7-9.2,13.4-10,1.7-.2,3.4-.2,5,.3,4.4,1.3,8.5,3.5,11.3,7.2,3.2,4.2,6.4,8.4,9.9,12.3,1.7,1.8,3.7,3.2,5.7,4.7,1.7,1.2,2.2,3.5.9,5.1-2.6,3.2-4.7,6.9-7.9,9.6-1.2,1-2.4,1.8-3.9,2.3-5.2,1.5-10.4,2.7-15.7,3.3-.3,0-.6,0-1,0Z"/>
        <path class="cls-16" d="M121.7,317.8c-2.4-3.8-4.9-7.5-7.2-11.3-4-6.6-7.3-13.7-9.9-21-.6-1.8-.7-3.6-.6-5.4,0-1,.3-1.9,1.4-2.3,1-.4,1.7.2,2.3.8,1.3,1.3,2.5,2.7,3.7,4,2,2.2,4.1,4.2,6.2,6.3,2,2.1,4.1,4,5.9,6.3,2.2,2.7,5.3,4.6,7.7,7.2,1.4,1.5,3.3,2.6,4.5,4.3-.4.4-.9.7-1.3,1.1-3.4,4.4-7.8,7.5-12.7,9.9Z"/>
        <path class="cls-16" d="M245.5,253c.9-2.3,1.2-4.8,1.7-7.2.9-5,2.8-9.8,4.1-14.8.3-1.1,1-1.8,2.2-1.9,1.2-.1,2,.5,2.5,1.5,1.4,3.2,2.9,6.4,4.3,9.6,3.3,7.6,6.9,15.1,10.5,22.6.8,1.6,1.4,3.4,2.1,5.1-2.8-.8-5.7-1.5-8.5-2.5-4.6-1.5-8.6-4-12.4-7.1-2.1-1.8-4.3-3.5-6.5-5.3Z"/>
        <path class="cls-16" d="M189.4,290.9c7.9-.6,13.9,2.9,18.9,8.6,2,2.3,2.8,5.1,2.6,8.2,0,1.5-.7,2.6-2.1,3.2-1.5.7-2.9.7-4.3-.4-2-1.7-4.3-3-6.7-4.2-3.3-1.7-7-2.3-10.5-3-1.5-.3-3-.5-4.5-.7-1.3-.3-2.5-.3-3.8,0-1.3.3-2.7.4-4,0-3.2-.7-4.1-3.7-2.1-6.2,1.7-2.1,4-3.1,6.4-4.1,3.2-1.3,6.6-1.7,10.1-1.5Z"/>
        <path class="cls-16" d="M138.2,368.6c-1.4,0-2.9,0-4.3,0-4.9-.4-8.9-2.4-11.1-7.1-2-4.1-3-8.4-1.8-13,.4-1.4.8-2.8,1.7-3.9,1.3-1.7,2.8-1.8,4.3-.3.6.6,1,1.3,1.4,1.9,3.1,4.5,6.3,8.8,10.8,12.1.9.6,1.8,1,2.8,1.3,2.1.6,4.1,1.2,6.2,1.9.5.1.9.3,1.3.5,1,.5,1.8,1.2,1.7,2.4,0,1.1-.7,1.9-1.6,2.2-2.3.9-4.5,2.1-7.1,2-1.4,0-2.9,0-4.3,0h0Z"/>
        <path class="cls-16" d="M250.8,304.4c0-3.4,1.9-5.8,4.2-7.7,3.9-3.5,8.5-6,13.8-6.9,4.3-.7,7.8.8,10.8,3.8.9.9,1.1,1.9.7,3.1-.5,1.2-1.5,1.6-2.6,1.8-.3,0-.7,0-1,0-3.2-1-5.8.5-8.3,2.1-3.1,2-6,4.2-8.9,6.5-.9.7-1.8,1.3-2.8,1.9-2.8,1.5-5.6,0-5.9-3.2,0-.4,0-.8,0-1.2Z"/>
        <path class="cls-16" d="M307.8,364.3c-2.4-.4-4.7-1.5-6.2-3.7-1.4-2.2,0-5.3,2.8-6.3,1.3-.5,2.6-.7,4-.9,1.7-.1,3.3-.5,4.8-1.3.1,0,.3-.1.4-.2.8-.4,1.7-.6,2.5,0,.8.7.8,1.5.5,2.4-.2.7-.4,1.4-.7,2-1.1,2.1-2.3,4.2-3.9,6-1,1.3-2.4,1.8-4.2,1.9Z"/>
        <path class="cls-20" d="M168.8,326.9c1.2-.4,2.3-.2,3.4.4,1.9.4,1.6,2,1.3,3.2-.3,1.3-1.2,2.3-2.8,1.7-3-.3-3.3-.6-3.3-3.9.5-.5,1-1,1.4-1.5Z"/>
        <path class="cls-12" d="M439.7,342.8c2.7,2.1,3,3.1,1.5,6.1-.4.9-.9,1.7-1.5,2.4-.6.8-.6,1.4.4,1.9,1.2.6,2,1.6,2,3,.1,1.6-.5,2.7-1.8,3.7-3.2,2.4-5.9,5.4-8.3,8.5-.6.8-.6,1.2.5,1.7,2.9,1.3,3.2,4.9.7,6.7-1.4,1-2.9,1.9-4.5,2.8-2.6,1.6-4.4,3.8-5.7,6.6-1.1,1-2,.2-2.9-.4-.6-1.2-.4-2.5-.1-3.7.7-2.6,1.1-5.3,2-7.9,1-3,1.1-5.9.1-8.9-.8-2.6-1.2-5.3-2.2-7.8-.4-1-.7-2.1-2-2.1-1.3,0-1.7,1.1-1.9,2.1-.8,3.3-1.6,6.7-2.6,10-.4,1.5,0,3,.4,4.5,1,4.3,2,8.6,1.6,13-1,1.6-2.7,2.3-4,3.4-.3.2-.7,0-1-.3-.2-2.1-1.4-3.7-2.4-5.4-.7-1.1-1.4-2.1-2.1-3.2-1.1-1.9-1-3,.7-4.4,1.1-.9.9-1.7.2-2.5-.3-.1-.5,0-.7.2-2.1,3.6-5.4,3.9-9,3.1-1.6-.4-3.2-1-4.8-1.4-1.8-.4-3.6-.8-5.4-1.2-1.8-.4-3.6-.7-5.4,0-.4.1-.8.2-1.2.2-.9,0-1.8-.2-2.2-1.2-.4-.9,0-1.7.5-2.4.9-1,2-1.6,3.3-1.8,1.4-.2,2-.9,2.3-2.3.7-3.1,2.3-5.8,4.9-7.8,2-1.6,4.3-2.1,6.7-2.2,1.9-.1,1.6-.3,2.3-2,1.2-2.8.6-5.4,0-8.1-.4-1.5-.6-3.1-.3-4.8.5-2.7,1.6-3.5,4.4-3.1.4,0,.8.1,1.2.2,1.7,1.3,2.7,3,3.3,5.1.4,1.4.9,2.7,1.5,4,.3.7.7,1.5,1.2,2.1,1.3,1.6,3.1,1.4,4-.5.7-1.5,1.3-3.1,1.6-4.8.4-2.3.8-4.6,1.5-6.8.6-1.7,1.3-3.4,3.5-3.4,2.1,0,3,1.6,3.6,3.3,1.4,3.9,1.9,8,1.6,12.2,0,.9-.7,2.1.4,2.6.9.4,1.7-.6,2.4-1.2,2.5-2.1,4.9-4.3,7.4-6.4,1.2-1,2.6-1.9,4.3-1.8Z"/>
        <path class="cls-12" d="M358.7,335c-.5-.3-.8-.8-1-1.3-2-5.6-3.2-11.3-2.2-17.3.1-.8.2-1.6.3-2.4.4-3-.7-5.3-3.4-6.7-.3-.1-.6-.3-.8-.5-1.9-1.4-1.9-3.2.3-4.2,3-1.4,5-3.6,6.4-6.5,1.1-2.3,1.6-4.6,1-7.2-.4-1.7-.2-3.2,1.3-4.3,4.5,4.3,8.9,8.7,13.8,12.5,1.5,1.1,2.9,2.3,4.3,3.4,0,1.2-.9.4-1.4.5-2.8-.4-5.6-.6-8.4-.5-.6,0-1.1,0-1.7,0-1.8.3-2.5,2-1.4,3.4.4.6,1,1,1.5,1.5.6.5,1.3.9,1.8,1.8-.6.6-1.4.6-2.1.8-1.5.4-3.1.9-4.5,1.7-1.1.6-2.1,1.5-2.8,2.6-1.6,2.8-1,4.5,2.2,6-2.5,5.3-3.5,10.8-3.3,16.6Z"/>
        <path class="cls-12" d="M508.4,288.1c1.4.6,1.3,1.6.9,2.8-.6,1.6-1.7,2.9-2.9,4.1-1.6,1.6-1.5,2.4.2,3.9,1.7,1.4,4,2,5.9,3.2.4.2.9.4,1.3.6,1.9,1.2,1.8,3.5-.2,4.6-1.6.9-1.6.9-.8,2.6,2.1,4.1,2.9,8.4,2.7,13,0,1.1,0,2.5-1.3,3.1-2.3-3.8-5-7.4-8.4-10.4-.9-.8-1.2-1.5-.6-2.8.9-1.9-.4-4.2-2.6-5.2-2.2-1-4.5-1.6-6.8-2.1-2.3-.5-4.5-1-6.8-1.5,0,0,0-.1-.1-.2-.2-.7.5-.9.9-1.2,4-3.3,8.5-6,12.6-9.2,2.1-1.6,4.4-2.9,6.1-4.9Z"/>
        <path class="cls-25" d="M492.5,375.3c-1.4,0-2.9,0-4.2-.5.3-.1-.1,0,0-.2,0,0,.1-.1.2-.1,2.1,0,4.3,0,6.4,0-.8.3-1.6.6-2.4.9Z"/>
        <path class="cls-33" d="M377.3,301c.5-.2.9-.3,1.4-.5.3.1.6.3.4.6,0,.1-.4.2-.6.2-.4,0-.8-.3-1.3-.4Z"/>
        <path class="cls-13" d="M497.8,433c-.5.4-1,.5-1.5,0,.5,0,1,0,1.5,0Z"/>
        <path class="cls-16" d="M182.4,548.1c-.8.7-1.6.4-2.4.4-8.7,0-17.4,0-26.1,0-.5,0-1,0-1.4,0-1.3,0-1.9-.7-1.9-1.9,0-4.9-2.6-8.6-5.6-12.1-1.3-1.4-2.5-2.9-3.8-4.3-1.2-1.3-1.6-2.7-1.4-4.6.8-5.8-1.1-10.5-6-13.9-2.4-1.7-4.9-3.4-7.4-4.8-1.4-.8-2.4-2.1-3.6-3.2-4-3.7-6.6-8.4-8.5-13.5-.3-.9-.7-1.8-1.3-2.6-1.7-2.2-2.7-4.7-3.2-7.4-.6-4-2.5-7.4-5.6-10-1.6-1.4-2.8-3-3.2-5.2-.1-.5-.2-1.1-.2-1.7,0-1.8.6-2.4,2.3-1.9,2.2.6,4.4,1.3,6.6,2.1,2.3.9,4.6,2,6.9,2.8,2.1.8,3.1,2.5,3.4,4.3,1.1,5.7,3.7,10.7,6,15.9,1.8,4.1,4.5,7.7,8.1,10.6,3.2,2.6,6.1,5.4,9.9,7.1.9.4,1.3,1.2,1.6,2,1.4,3.9,3.4,7.6,5.5,11.2,1.5,2.5,3.3,4.7,4.5,7.3.1.3.4.5.6.8,5,5.5,10.3,10.7,16.2,15.2,2.6,2,5.3,4.1,8.3,5.7.7.4,1.5.8,1.9,1.7Z"/>
        <path class="cls-16" d="M125.1,548.3c4-2.2,7.5-2,11.3-.3-1.9.7-7.6.8-11.3.3Z"/>
        <path class="cls-12" d="M439.8,368.8c.1-1.5.4-3.2.8-4.9,1.2-6.1,9.7-10.9,16.8-5,2,1.7,3.5,3.8,3.9,6.4.4,2.2,1.4,3.6,3.8,3.9.8,0,1.6.4,2.2.9.8.7,1.2,1.5.8,2.6-.4,1.1-1.2,1.7-2.3,1.7-.4,0-.8,0-1.2-.2-4.3-1.3-8.5-.6-12.7.8-1.2.4-2.4.8-3.7,1-4.9,1.1-8.5-1.9-8.4-7.2Z"/>
        <path class="cls-19" d="M420.6,385.4c.9,0,1.6.6,2.4,1,1.4,1,2.3,2.4,2.7,4.1.4,2.1-.5,3.7-2.5,4.4-.7.2-1.3.5-1.7,1.2-1,1.6-2.6,2-4.4,1.8-3.1-.3-5.7-1.3-6.7-4.7-.1-.5-.4-.9-.6-1.3-.7-1.4-.7-2.6.7-3.6,1.3-1.3,2.5-2.8,4.3-3.4,1.9-2.1,4-1.9,5.9.5Z"/>
        <path class="cls-12" d="M510.3,476.1c.6,1.1.5,2.2,0,3.3,0-1.1,0-2.2,0-3.3Z"/>
        <path class="cls-15" d="M327.9,478.9c.7.4.8,1.2,1,1.8,1.6,4.6,3.1,9.2,4.6,13.9.4,1.2.5,2.3.3,3.5-.7,3.4-1.3,6.9-1.9,10.4-.2,1.3-.8,1.8-2.1,1.7-3.4,0-6.7,0-10.1,0-1.9,0-2.1-.3-1.5-2.1,2.3-7.4,4.7-14.8,7-22.1.6-1.8,1.2-3.7,1.8-5.5.2-.6.2-1.3.9-1.6Z"/>
        <path class="cls-7" d="M327.7,460.8c-.2-.4-.4-.6-.5-.9-1.8-5.4-3.6-10.8-5.3-16.2-.6-1.8-.5-2,1.4-2,3.1,0,6.2.1,9.3.2,1.1,0,1.4.6,1.1,1.6-1.9,5.7-3.7,11.4-5.6,17.1,0,0-.1,0-.4.3Z"/>
        <path class="cls-29" d="M170.6,332.2c1.9-1.2,2.4-2.8,1.5-4.9,1.3-1.7,2.5-3.5,3.8-5.2.9-1.3,2.1-2.4,3.3-3.4,3.8-3.1,8.2-3.2,12.3.6,4.4,3.9,7.8,8.6,10.5,13.8,1.3,2.5,1.1,4.9-.4,7-5.5,7.7-12.6,13-22.3,14.3-4.2.6-8.4.5-12.6-.4-2.1-.5-4.2-.7-6.4-1.1-.8-.1-1.6-.3-2.3-.7-2.1-1-2.8-2.7-1.9-5,1-2.5,2.8-4.5,4.4-6.5,1.4-1.8,3.1-3.4,4.6-5.2,1.4-1.7,3.2-2.8,5.4-3.2Z"/>
        <path class="cls-29" d="M266.6,317.7c-.4-.4-.6-.9-.4-1.5,2.5-5.8,9-8.2,14.3-5.1,2.7,1.6,5,3.7,7.4,5.7,3.9,3.5,7.5,7.3,11.5,10.8,4,3.6,3,9.4.2,12.5-2.8,3.1-6.3,4.8-10.4,5.4-7.9,1.2-15.4-.4-22.7-3.2-2.3-.9-4.4-2.3-6.1-4.2-2.2-2.5-2.5-4.7-1-7.6,1.1-2.1,2.1-4.1,3.1-6.2.3-.7.6-1.3,1.2-1.8.2-.2.4-.5.7-.6,1.9-.4,2.7-1.4,2.1-3.3,0-.3,0-.6.1-.9Z"/>
        <path class="cls-3" d="M266.6,317.7c.4.3.8.6,1.1.9.7.9.9,1.8.4,2.8-.6,1.1-1.5,1.6-2.7,1.5-.5,0-1.1-.3-1.6-.4-1.3-3.1-.6-4.4,2.9-4.8Z"/>
        <path class="cls-5" d="M420.6,385.4c-1.9-.5-3.9-1-5.9-.5-.7-5-1.3-10-2.7-14.8-.3-1-.2-2.1.2-3.1,1.1-3.2,1.8-6.5,2.5-9.7.2-.8.4-1.6.8-2.3,1.1-2,3.3-2.1,4.6-.2.4.6.6,1.3.8,2,1.3,3.9,2.1,7.9,3.1,11.8.4,1.4,0,2.7-.4,4-.9,3.5-1.8,7-2.7,10.4-.2.8-.3,1.6-.4,2.4Z"/>
        <path class="cls-19" d="M393.1,360.6c1-1.9,2.8-2,4.5-1.9,1.3,0,2.5.5,3.5,1.4,2.8,2.5,4.3,5.6,4,9.3-.2,2.9-1.6,4.2-4.5,4-2.8-.1-5.6-.5-8.3-1.1-1.5-.3-2.9-.7-4.5-.4-1,.1-1.9-.1-2.4-1.1-.5-1-.2-1.9.5-2.6.9-.9,1.5-2.1,2.1-3.2.5-.8,1-1.7,1.9-2,.9-1,2.1-1.6,3.3-2.3Z"/>
        <path class="cls-27" d="M393.1,360.6c-.2,2.5-.8,3-3.3,2.3-.2-.4-.4-.7-.5-1.1-.2-.8,0-1.6.7-2.1.7-.5,1.5-.5,2.2,0,.3.2.6.5.8.8Z"/>
        <path class="cls-19" d="M447.9,360.4c1.1-1.4,2.5-.9,3.7-.6,3.2.8,5.4,3,7.2,5.6.6.8,1,1.6,1.4,2.5.9,1.9.2,3.5-1.9,4-.7.2-1.4.1-2.1,0-2.3-.5-4.4,0-6.5.7-1,.4-2.1.8-3.2.9-2.6.2-4.4-1-5-3.4-.6-2.3-.2-4.6,1.1-6.6.4-.7,1-1.3,2-.9,1.4-.2,2.5-.9,3.4-2Z"/>
        <path class="cls-17" d="M447.9,360.4c.6,1.1.6,2.2-.6,2.9-1.2.7-2.1.1-2.8-.9.3-2.7,1-3.1,3.4-2Z"/>
      </g>
    </g>
  </g>
</svg>